<svg id="Layer_1" enable-background="new 0 0 299.92 299.92" viewBox="0 0 299.92 299.92" xmlns="http://www.w3.org/2000/svg"><g><g><path d="m293.4 0h-52.16c-3.606 0-6.52 2.914-6.52 6.52v19.595c-117.231 1.492-208.64 91.725-208.64 206.656v1.949h-19.56c-3.606 0-6.52 2.914-6.52 6.52v52.16c0 3.606 2.914 6.52 6.52 6.52h52.16c3.606 0 6.52-2.914 6.52-6.52v-52.16c0-3.606-2.914-6.52-6.52-6.52h-19.56v-1.949c0-107.629 85.678-192.127 195.6-193.615v19.524c0 3.606 2.914 6.52 6.52 6.52h52.16c3.606 0 6.52-2.914 6.52-6.52v-52.16c0-3.606-2.914-6.52-6.52-6.52zm-241.24 247.76v39.12h-39.12v-39.12h13.04 13.04zm234.72-195.6h-39.12v-13.04-13.04-13.04h39.12z"/></g></g><g/><g/><g/><g/><g/><g/><g/><g/><g/><g/><g/><g/><g/><g/><g/></svg>